<?xml version="1.0" encoding="UTF-8" standalone="no"?>
<svg
   xmlns:dc="http://purl.org/dc/elements/1.1/"
   xmlns:cc="http://creativecommons.org/ns#"
   xmlns:rdf="http://www.w3.org/1999/02/22-rdf-syntax-ns#"
   xmlns:svg="http://www.w3.org/2000/svg"
   xmlns="http://www.w3.org/2000/svg"
   id="svg5570"
   version="1.1"
   viewBox="0 0 512 512"
   height="512mm"
   width="512mm">
  <defs
     id="defs5564">
    <clipPath
       id="clipPath416"
       clipPathUnits="userSpaceOnUse">
      <path
         id="path414"
         d="m 106.521,505.844 h 53.4 v -53.401 h -53.4 z" />
    </clipPath>
    <clipPath
       id="clipPath432"
       clipPathUnits="userSpaceOnUse">
      <path
         id="path430"
         d="m 107.103,505.263 h 53.4 v -53.401 h -53.4 z" />
    </clipPath>
    <clipPath
       id="clipPath452"
       clipPathUnits="userSpaceOnUse">
      <path
         id="path450"
         d="m 121.394,490.97 h 53.401 v -53.4 h -53.401 z" />
    </clipPath>
    <clipPath
       id="clipPath468"
       clipPathUnits="userSpaceOnUse">
      <path
         id="path466"
         d="m 121.976,490.39 h 53.4 v -53.401 h -53.4 z" />
    </clipPath>
    <clipPath
       id="clipPath488"
       clipPathUnits="userSpaceOnUse">
      <path
         id="path486"
         d="M 252.477,497.736 H 303.71 V 458.461 H 252.477 Z" />
    </clipPath>
    <clipPath
       id="clipPath516"
       clipPathUnits="userSpaceOnUse">
      <path
         id="path514"
         d="m 260.136,464.691 h 34.022 v -18.162 h -34.022 z" />
    </clipPath>
    <clipPath
       id="clipPath1186"
       clipPathUnits="userSpaceOnUse">
      <path
         id="path1184"
         d="m 371.012,489.894 h 13.025 v -36.841 h -13.025 z" />
    </clipPath>
    <clipPath
       id="clipPath1238"
       clipPathUnits="userSpaceOnUse">
      <path
         id="path1236"
         d="m 416.701,489.894 h 13.026 v -36.841 h -13.026 z" />
    </clipPath>
    <clipPath
       id="clipPath1290"
       clipPathUnits="userSpaceOnUse">
      <path
         id="path1288"
         d="m 381.949,500.831 h 36.84 v -13.025 h -36.84 z" />
    </clipPath>
    <clipPath
       id="clipPath1342"
       clipPathUnits="userSpaceOnUse">
      <path
         id="path1340"
         d="m 381.949,455.141 h 36.84 v -13.025 h -36.84 z" />
    </clipPath>
    <clipPath
       id="clipPath1378"
       clipPathUnits="userSpaceOnUse">
      <path
         id="path1376"
         d="M 377.82,494.007 H 422.9 V 448.929 H 377.82 Z" />
    </clipPath>
    <clipPath
       id="clipPath1398"
       clipPathUnits="userSpaceOnUse">
      <path
         id="path1396"
         d="m 372.796,499.034 h 55.132 v -28.96 h -55.132 z" />
    </clipPath>
    <clipPath
       id="clipPath1422"
       clipPathUnits="userSpaceOnUse">
      <path
         id="path1420"
         d="m 390.837,480.992 h 19.048 v -10.918 h -19.048 z" />
    </clipPath>
  </defs>
  <metadata
     id="metadata5567">
    <rdf:RDF>
      <cc:Work
         rdf:about="">
        <dc:format>image/svg+xml</dc:format>
        <dc:type
           rdf:resource="http://purl.org/dc/dcmitype/StillImage" />
        <dc:title></dc:title>
      </cc:Work>
    </rdf:RDF>
  </metadata>
  <g
     transform="translate(0,215)"
     id="layer1">
    <g
       style="stroke-width:0.05060491"
       id="g6171"
       transform="matrix(6.9712169,0,0,-6.9712169,-724.48669,3324.4963)">
      <g
         style="stroke-width:0.00238825"
         id="g6348"
         transform="matrix(1.0722746,0,0,1.0722746,-428.20279,-31.791343)">
        <path
           d="m 536.327,470.421 h -5.963 v -13.695 h 5.963 z"
           style="fill:#dce2e9;fill-opacity:1;fill-rule:nonzero;stroke:none;stroke-width:0.00238825"
           id="path1548" />
        <g
           style="stroke-width:0.00238825"
           id="g1550"
           transform="translate(555.6885,444.7783)">
          <path
             d="m 0,0 c -0.16,0.748 -4.568,-0.369 -4.857,-1.82 -4.094,0.845 -10.405,1.39 -17.487,1.39 -7.083,0 -13.392,-0.545 -17.486,-1.39 -0.289,1.451 -4.697,2.568 -4.858,1.82 -0.164,-0.766 -0.293,-2.992 0,-4.25 0.009,-0.035 0.033,-0.059 0.049,-0.09 0.725,-1.924 10.427,-3.449 22.295,-3.449 11.867,0 21.571,1.525 22.295,3.449 0.016,0.031 0.039,0.055 0.049,0.09 0.293,1.258 0.164,3.484 0,4.25"
             style="fill:#bfc8d5;fill-opacity:1;fill-rule:nonzero;stroke:none;stroke-width:0.00238825"
             id="path1552" />
        </g>
        <g
           style="stroke-width:0.00238825"
           id="g1554"
           transform="translate(555.6885,444.6689)">
          <path
             d="m 0,0 c 0,-2.031 -10.004,-3.68 -22.344,-3.68 -12.34,0 -22.344,1.649 -22.344,3.68 0,2.031 10.004,3.68 22.344,3.68 C -10.004,3.68 0,2.031 0,0"
             style="fill:#dce2e9;fill-opacity:1;fill-rule:nonzero;stroke:none;stroke-width:0.00238825"
             id="path1556" />
        </g>
        <g
           style="stroke-width:0.00238825"
           id="g1558"
           transform="translate(537.0908,457.3447)">
          <path
             d="m 0,0 c -0.871,0.523 -2.701,0.785 -3.746,0.785 -1.045,0 -2.875,-0.262 -3.746,-0.785 -0.871,-0.521 -5.983,-11.418 -5.053,-12.375 0.928,-0.959 4.796,-1.598 8.799,-1.598 4.002,0 7.871,0.639 8.799,1.598 C 5.982,-11.418 0.871,-0.521 0,0"
             style="fill:#5a6271;fill-opacity:1;fill-rule:nonzero;stroke:none;stroke-width:0.00238825"
             id="path1560" />
        </g>
        <g
           style="stroke-width:0.00238825"
           id="g1562"
           transform="translate(539.5049,466.5654)">
          <path
             d="m 0,0 c 9.67,9.67 10.195,24.824 1.172,33.848 l -35.02,-35.02 C -24.824,-10.195 -9.67,-9.672 0,0"
             style="fill:#fdd948;fill-opacity:1;fill-rule:nonzero;stroke:none;stroke-width:0.00238825"
             id="path1564" />
        </g>
        <g
           style="stroke-width:0.00238825"
           id="g1566"
           transform="translate(540.6748,500.4131)">
          <path
             d="m 0,0 c 2.928,-2.928 -2.539,-13.139 -12.209,-22.809 -9.668,-9.67 -19.881,-15.136 -22.809,-12.211 -2.927,2.928 2.539,13.141 12.209,22.811 C -13.139,-2.539 -2.926,2.928 0,0"
             style="fill:#ffc52f;fill-opacity:1;fill-rule:nonzero;stroke:none;stroke-width:0.00238825"
             id="path1568" />
        </g>
        <g
           style="stroke-width:0.00238825"
           id="g1570"
           transform="translate(540.1943,499.9326)">
          <path
             d="m 0,0 c 2.699,-2.699 -2.736,-12.512 -12.141,-21.916 -9.404,-9.404 -19.216,-14.842 -21.916,-12.143 -2.699,2.7 2.737,12.514 12.141,21.918 C -12.512,-2.736 -2.699,2.699 0,0"
             style="fill:#f9ab2b;fill-opacity:1;fill-rule:nonzero;stroke:none;stroke-width:0.00238825"
             id="path1572" />
        </g>
        <g
           style="stroke-width:0.00238825"
           id="g1574"
           transform="translate(523.9053,474.1436)">
          <path
             d="M 0,0 C 1.375,1.195 2.766,2.49 4.148,3.873 5.531,5.254 6.824,6.646 8.021,8.021 5.773,9.408 2.789,9.133 0.84,7.182 -1.109,5.232 -1.387,2.248 0,0"
             style="fill:#fde766;fill-opacity:1;fill-rule:nonzero;stroke:none;stroke-width:0.00238825"
             id="path1576" />
        </g>
        <g
           style="stroke-width:0.00238825"
           id="g1578"
           transform="translate(513.085,489.835)">
          <path
             d="M 0,0 C -0.006,0.549 -0.453,0.988 -1,0.988 H -1.012 C -1.564,0.98 -2.006,0.527 -2,-0.023 l 0.291,-23.907 c 0.629,0.237 1.291,0.522 1.99,0.869 z"
             style="fill:#dce2e9;fill-opacity:1;fill-rule:nonzero;stroke:none;stroke-width:0.00238825"
             id="path1580" />
        </g>
        <g
           style="stroke-width:0.00238825"
           id="g1582"
           transform="translate(540.1748,494.7256)">
          <path
             d="m 0,0 -23.887,0.289 h -0.011 c -0.547,0 -0.993,-0.439 -1,-0.988 -0.006,-0.553 0.435,-1.006 0.988,-1.012 L -0.863,-1.99 C -0.518,-1.291 -0.234,-0.631 0,0"
             style="fill:#dce2e9;fill-opacity:1;fill-rule:nonzero;stroke:none;stroke-width:0.00238825"
             id="path1584" />
        </g>
        <g
           style="stroke-width:0.00238825"
           id="g1586"
           transform="translate(515.708,497.7432)">
          <path
             d="m 0,0 c -0.074,0.033 -0.062,-0.084 0.008,-0.213 -0.91,0.086 -2.719,-0.99 -4.438,-2.707 -1.716,-1.719 -2.793,-3.529 -2.707,-4.439 -0.127,0.072 -0.246,0.086 -0.213,0.009 0.045,-0.105 2.788,-2.843 2.916,-2.949 0.012,-0.01 0.022,-0.017 0.032,-0.025 0.705,-0.524 2.81,0.603 4.791,2.586 C 2.371,-5.756 3.5,-3.65 2.973,-2.949 2.967,-2.939 0.451,-0.42 0.441,-0.408 0.334,-0.279 0.107,-0.045 0,0"
             style="fill:#ffc52f;fill-opacity:1;fill-rule:nonzero;stroke:none;stroke-width:0.00238825"
             id="path1588" />
        </g>
        <g
           style="stroke-width:0.00238825"
           id="g1590"
           transform="translate(515.833,497.6514)">
          <path
             d="m 0,0 c 0.639,-0.639 -0.496,-2.807 -2.537,-4.848 -2.037,-2.039 -4.209,-3.175 -4.846,-2.537 -0.638,0.639 0.498,2.809 2.537,4.848 C -2.807,-0.5 -0.637,0.637 0,0"
             style="fill:#fde766;fill-opacity:1;fill-rule:nonzero;stroke:none;stroke-width:0.00238825"
             id="path1592" />
        </g>
        <g
           style="stroke-width:0.00238825"
           id="g1594"
           transform="translate(510.1592,498.4326)">
          <path
             d="m 0,0 c -0.025,0.01 -0.02,-0.029 0.004,-0.072 -0.309,0.029 -0.922,-0.338 -1.504,-0.92 -0.582,-0.582 -0.945,-1.196 -0.918,-1.504 -0.043,0.025 -0.082,0.031 -0.072,0.004 0.015,-0.035 0.095,-0.112 0.138,-0.149 0.006,-0.004 3.075,-3.072 3.077,-3.074 0.238,-0.178 0.951,0.203 1.625,0.875 0.671,0.672 1.052,1.385 0.875,1.623 C 3.223,-3.213 0.154,-0.143 0.15,-0.139 0.115,-0.096 0.035,-0.016 0,0"
             style="fill:#bfc8d5;fill-opacity:1;fill-rule:nonzero;stroke:none;stroke-width:0.00238825"
             id="path1596" />
        </g>
        <g
           style="stroke-width:0.00238825"
           id="g1598"
           transform="translate(510.2041,498.3994)">
          <path
             d="m 0,0 c 0.215,-0.215 -0.172,-0.951 -0.859,-1.643 -0.692,-0.689 -1.428,-1.074 -1.645,-0.859 -0.215,0.217 0.17,0.951 0.859,1.645 C -0.953,-0.17 -0.219,0.219 0,0"
             style="fill:#dce2e9;fill-opacity:1;fill-rule:nonzero;stroke:none;stroke-width:0.00238825"
             id="path1600" />
        </g>
      </g>
    </g>
  </g>
</svg>
