<svg xmlns="http://www.w3.org/2000/svg" xmlns:xlink="http://www.w3.org/1999/xlink" version="1.1" width="256" height="256" viewBox="0 0 256 256" xml:space="preserve">

<defs>
</defs>
<g style="stroke: none; stroke-width: 0; stroke-dasharray: none; stroke-linecap: butt; stroke-linejoin: miter; stroke-miterlimit: 10; fill: none; fill-rule: nonzero; opacity: 1;" transform="translate(1.4065934065934016 1.4065934065934016) scale(2.81 2.81)" >
	<path d="M 84.136 44.956 c -3.233 0 -5.864 -2.631 -5.864 -5.865 c 0 -3.233 2.631 -5.864 5.864 -5.864 S 90 35.858 90 39.091 C 90 42.325 87.369 44.956 84.136 44.956 z M 84.136 35.227 c -2.131 0 -3.864 1.733 -3.864 3.864 s 1.733 3.865 3.864 3.865 S 88 41.222 88 39.091 S 86.267 35.227 84.136 35.227 z" style="stroke: none; stroke-width: 1; stroke-dasharray: none; stroke-linecap: butt; stroke-linejoin: miter; stroke-miterlimit: 10; fill: rgb(0,35,86); fill-rule: nonzero; opacity: 1;" transform=" matrix(1 0 0 1 0 0) " stroke-linecap="round" />
	<path d="M 12.82 79.533 c -3.233 0 -5.864 -2.631 -5.864 -5.864 c 0 -3.234 2.631 -5.865 5.864 -5.865 c 3.234 0 5.865 2.631 5.865 5.865 C 18.685 76.902 16.054 79.533 12.82 79.533 z M 12.82 69.804 c -2.131 0 -3.864 1.734 -3.864 3.865 s 1.733 3.864 3.864 3.864 s 3.865 -1.733 3.865 -3.864 S 14.951 69.804 12.82 69.804 z" style="stroke: none; stroke-width: 1; stroke-dasharray: none; stroke-linecap: butt; stroke-linejoin: miter; stroke-miterlimit: 10; fill: rgb(0,35,86); fill-rule: nonzero; opacity: 1;" transform=" matrix(1 0 0 1 0 0) " stroke-linecap="round" />
	<path d="M 21.123 54.358 c -1.543 0 -2.995 -0.602 -4.086 -1.693 c -1.091 -1.091 -1.692 -2.542 -1.692 -4.086 s 0.601 -2.995 1.693 -4.086 l 10.724 -10.724 c -0.921 -0.16 -1.803 -0.595 -2.512 -1.304 c -1.832 -1.832 -1.832 -4.813 0 -6.644 l 7.899 -7.899 c 3.265 -3.267 8.291 -4.194 12.507 -2.311 c 0.504 0.226 0.73 0.817 0.505 1.321 c -0.226 0.503 -0.817 0.729 -1.321 0.505 c -3.462 -1.548 -7.594 -0.785 -10.277 1.898 l -7.899 7.899 c -1.052 1.052 -1.052 2.764 0 3.816 c 1.053 1.052 2.764 1.052 3.816 0 l 8.022 -8.022 c 0.391 -0.391 1.023 -0.391 1.414 0 s 0.391 1.023 0 1.414 L 18.451 45.907 c -0.714 0.714 -1.107 1.663 -1.107 2.672 s 0.393 1.958 1.107 2.672 c 1.429 1.429 3.918 1.428 5.344 0 l 10.538 -10.537 c 0.391 -0.391 1.023 -0.391 1.414 0 s 0.391 1.023 0 1.414 L 25.209 52.665 C 24.118 53.757 22.667 54.358 21.123 54.358 z" style="stroke: none; stroke-width: 1; stroke-dasharray: none; stroke-linecap: butt; stroke-linejoin: miter; stroke-miterlimit: 10; fill: rgb(0,35,86); fill-rule: nonzero; opacity: 1;" transform=" matrix(1 0 0 1 0 0) " stroke-linecap="round" />
	<path d="M 27.777 61.01 c -1.48 0 -2.96 -0.563 -4.086 -1.69 c -1.092 -1.091 -1.693 -2.543 -1.693 -4.087 c 0 -1.543 0.601 -2.995 1.693 -4.086 l 10.537 -10.537 c 0.391 -0.391 1.023 -0.391 1.414 0 s 0.391 1.023 0 1.414 L 25.105 52.561 c -0.714 0.714 -1.107 1.663 -1.107 2.672 c 0 1.01 0.393 1.959 1.107 2.673 c 1.473 1.473 3.87 1.473 5.344 0 l 22.569 -22.569 c 0.391 -0.391 1.023 -0.391 1.414 0 l 3.71 3.71 c 0.943 0.943 2.197 1.463 3.532 1.463 c 1.334 0 2.589 -0.52 3.532 -1.463 l 7.38 -7.38 c 1.052 -1.052 1.052 -2.764 0 -3.816 c -1.02 -1.02 -2.797 -1.02 -3.816 0 l -3.827 3.827 c -1.338 1.338 -3.671 1.338 -5.009 0 c -0.391 -0.391 -0.391 -1.024 0 -1.415 c 0.391 -0.39 1.023 -0.39 1.414 0 c 0.582 0.583 1.599 0.582 2.181 0 l 3.827 -3.827 c 0.888 -0.888 2.067 -1.376 3.322 -1.376 s 2.435 0.488 3.322 1.376 c 0.888 0.887 1.376 2.067 1.376 3.322 s -0.488 2.435 -1.376 3.322 l -7.38 7.38 c -1.321 1.321 -3.078 2.049 -4.946 2.049 c -1.869 0 -3.625 -0.728 -4.946 -2.049 l -3.003 -3.003 L 31.863 59.319 C 30.737 60.446 29.257 61.01 27.777 61.01 z" style="stroke: none; stroke-width: 1; stroke-dasharray: none; stroke-linecap: butt; stroke-linejoin: miter; stroke-miterlimit: 10; fill: rgb(0,35,86); fill-rule: nonzero; opacity: 1;" transform=" matrix(1 0 0 1 0 0) " stroke-linecap="round" />
	<path d="M 58.106 28.086 c -2.655 0 -5.152 -1.034 -7.029 -2.912 c -1.878 -1.877 -2.912 -4.374 -2.912 -7.03 c 0 -2.655 1.034 -5.152 2.912 -7.029 c 1.877 -1.878 4.374 -2.912 7.029 -2.912 s 5.152 1.034 7.029 2.912 c 1.878 1.877 2.912 4.374 2.912 7.029 c 0 2.656 -1.034 5.152 -2.912 7.03 l 0 0 l 0 0 C 63.259 27.052 60.762 28.086 58.106 28.086 z M 58.106 10.204 c -2.121 0 -4.115 0.826 -5.615 2.326 s -2.326 3.494 -2.326 5.615 c 0 2.122 0.826 4.116 2.326 5.616 s 3.494 2.326 5.615 2.326 s 4.115 -0.826 5.615 -2.326 l 0 0 c 1.5 -1.5 2.326 -3.494 2.326 -5.616 c 0 -2.121 -0.826 -4.115 -2.326 -5.615 S 60.228 10.204 58.106 10.204 z" style="stroke: none; stroke-width: 1; stroke-dasharray: none; stroke-linecap: butt; stroke-linejoin: miter; stroke-miterlimit: 10; fill: rgb(0,35,86); fill-rule: nonzero; opacity: 1;" transform=" matrix(1 0 0 1 0 0) " stroke-linecap="round" />
	<path d="M 7.12 22.656 H 5.813 c -0.552 0 -1 -0.448 -1 -1 s 0.448 -1 1 -1 H 7.12 c 0.552 0 1 0.448 1 1 S 7.672 22.656 7.12 22.656 z" style="stroke: none; stroke-width: 1; stroke-dasharray: none; stroke-linecap: butt; stroke-linejoin: miter; stroke-miterlimit: 10; fill: rgb(248,134,15); fill-rule: nonzero; opacity: 1;" transform=" matrix(1 0 0 1 0 0) " stroke-linecap="round" />
	<path d="M 13.666 22.656 H 12.36 c -0.552 0 -1 -0.448 -1 -1 s 0.448 -1 1 -1 h 1.306 c 0.552 0 1 0.448 1 1 S 14.218 22.656 13.666 22.656 z" style="stroke: none; stroke-width: 1; stroke-dasharray: none; stroke-linecap: butt; stroke-linejoin: miter; stroke-miterlimit: 10; fill: rgb(248,134,15); fill-rule: nonzero; opacity: 1;" transform=" matrix(1 0 0 1 0 0) " stroke-linecap="round" />
	<path d="M 9.74 20.036 c -0.552 0 -1 -0.448 -1 -1 V 17.73 c 0 -0.552 0.448 -1 1 -1 s 1 0.448 1 1 v 1.306 C 10.74 19.588 10.292 20.036 9.74 20.036 z" style="stroke: none; stroke-width: 1; stroke-dasharray: none; stroke-linecap: butt; stroke-linejoin: miter; stroke-miterlimit: 10; fill: rgb(248,134,15); fill-rule: nonzero; opacity: 1;" transform=" matrix(1 0 0 1 0 0) " stroke-linecap="round" />
	<path d="M 9.74 26.583 c -0.552 0 -1 -0.448 -1 -1 v -1.306 c 0 -0.552 0.448 -1 1 -1 s 1 0.448 1 1 v 1.306 C 10.74 26.135 10.292 26.583 9.74 26.583 z" style="stroke: none; stroke-width: 1; stroke-dasharray: none; stroke-linecap: butt; stroke-linejoin: miter; stroke-miterlimit: 10; fill: rgb(248,134,15); fill-rule: nonzero; opacity: 1;" transform=" matrix(1 0 0 1 0 0) " stroke-linecap="round" />
	<path d="M 28.01 6.02 c -0.13 0 -0.26 -0.03 -0.38 -0.08 c -0.12 -0.05 -0.23 -0.12 -0.32 -0.21 c -0.1 -0.1 -0.17 -0.21 -0.22 -0.33 s -0.08 -0.25 -0.08 -0.38 c 0 -0.13 0.03 -0.26 0.08 -0.38 c 0.05 -0.13 0.12 -0.24 0.22 -0.33 c 0.09 -0.09 0.2 -0.16 0.32 -0.21 c 0.25 -0.1 0.52 -0.11 0.77 0 c 0.12 0.05 0.23 0.12 0.32 0.21 c 0.09 0.09 0.17 0.2 0.22 0.33 c 0.05 0.12 0.07 0.25 0.07 0.38 c 0 0.26 -0.1 0.52 -0.29 0.71 C 28.53 5.91 28.28 6.02 28.01 6.02 z" style="stroke: none; stroke-width: 1; stroke-dasharray: none; stroke-linecap: butt; stroke-linejoin: miter; stroke-miterlimit: 10; fill: rgb(248,134,15); fill-rule: nonzero; opacity: 1;" transform=" matrix(1 0 0 1 0 0) " stroke-linecap="round" />
	<path d="M 74.113 79.925 h -1.307 c -0.553 0 -1 -0.447 -1 -1 s 0.447 -1 1 -1 h 1.307 c 0.553 0 1 0.447 1 1 S 74.666 79.925 74.113 79.925 z" style="stroke: none; stroke-width: 1; stroke-dasharray: none; stroke-linecap: butt; stroke-linejoin: miter; stroke-miterlimit: 10; fill: rgb(248,134,15); fill-rule: nonzero; opacity: 1;" transform=" matrix(1 0 0 1 0 0) " stroke-linecap="round" />
	<path d="M 80.659 79.925 h -1.307 c -0.553 0 -1 -0.447 -1 -1 s 0.447 -1 1 -1 h 1.307 c 0.553 0 1 0.447 1 1 S 81.212 79.925 80.659 79.925 z" style="stroke: none; stroke-width: 1; stroke-dasharray: none; stroke-linecap: butt; stroke-linejoin: miter; stroke-miterlimit: 10; fill: rgb(248,134,15); fill-rule: nonzero; opacity: 1;" transform=" matrix(1 0 0 1 0 0) " stroke-linecap="round" />
	<path d="M 76.732 77.305 c -0.553 0 -1 -0.447 -1 -1 v -1.307 c 0 -0.553 0.447 -1 1 -1 s 1 0.447 1 1 v 1.307 C 77.732 76.857 77.285 77.305 76.732 77.305 z" style="stroke: none; stroke-width: 1; stroke-dasharray: none; stroke-linecap: butt; stroke-linejoin: miter; stroke-miterlimit: 10; fill: rgb(248,134,15); fill-rule: nonzero; opacity: 1;" transform=" matrix(1 0 0 1 0 0) " stroke-linecap="round" />
	<path d="M 76.732 83.851 c -0.553 0 -1 -0.447 -1 -1 v -1.307 c 0 -0.553 0.447 -1 1 -1 s 1 0.447 1 1 v 1.307 C 77.732 83.403 77.285 83.851 76.732 83.851 z" style="stroke: none; stroke-width: 1; stroke-dasharray: none; stroke-linecap: butt; stroke-linejoin: miter; stroke-miterlimit: 10; fill: rgb(248,134,15); fill-rule: nonzero; opacity: 1;" transform=" matrix(1 0 0 1 0 0) " stroke-linecap="round" />
	<path d="M 34.5 84.02 c -0.14 0 -0.26 -0.029 -0.39 -0.08 c -0.12 -0.05 -0.23 -0.12 -0.32 -0.22 c -0.19 -0.189 -0.29 -0.439 -0.29 -0.71 c 0 -0.13 0.02 -0.26 0.07 -0.38 s 0.13 -0.23 0.22 -0.32 c 0.09 -0.1 0.2 -0.17 0.32 -0.22 c 0.37 -0.15 0.82 -0.06 1.09 0.22 c 0.19 0.181 0.3 0.44 0.3 0.7 c 0 0.14 -0.03 0.271 -0.08 0.39 c -0.05 0.12 -0.12 0.23 -0.22 0.32 c -0.09 0.1 -0.2 0.17 -0.32 0.22 C 34.76 83.99 34.63 84.02 34.5 84.02 z" style="stroke: none; stroke-width: 1; stroke-dasharray: none; stroke-linecap: butt; stroke-linejoin: miter; stroke-miterlimit: 10; fill: rgb(248,134,15); fill-rule: nonzero; opacity: 1;" transform=" matrix(1 0 0 1 0 0) " stroke-linecap="round" />
	<path d="M 1 57.88 c -0.27 0 -0.52 -0.1 -0.71 -0.29 C 0.1 57.399 0 57.149 0 56.88 c 0 -0.13 0.03 -0.26 0.08 -0.38 c 0.05 -0.12 0.12 -0.23 0.21 -0.32 c 0.37 -0.37 1.05 -0.38 1.42 0 c 0.09 0.09 0.16 0.2 0.21 0.32 C 1.97 56.62 2 56.75 2 56.88 c 0 0.27 -0.1 0.52 -0.29 0.71 S 1.27 57.88 1 57.88 z" style="stroke: none; stroke-width: 1; stroke-dasharray: none; stroke-linecap: butt; stroke-linejoin: miter; stroke-miterlimit: 10; fill: rgb(248,134,15); fill-rule: nonzero; opacity: 1;" transform=" matrix(1 0 0 1 0 0) " stroke-linecap="round" />
	<path d="M 86.359 61.13 c -0.27 0 -0.52 -0.11 -0.699 -0.3 c -0.101 -0.09 -0.17 -0.2 -0.221 -0.32 c -0.05 -0.12 -0.08 -0.25 -0.08 -0.39 c 0 -0.061 0.011 -0.13 0.021 -0.19 c 0.01 -0.06 0.03 -0.13 0.06 -0.189 c 0.021 -0.061 0.051 -0.12 0.091 -0.171 c 0.039 -0.06 0.079 -0.109 0.13 -0.149 c 0.09 -0.101 0.199 -0.17 0.319 -0.22 c 0.181 -0.08 0.38 -0.101 0.58 -0.061 c 0.061 0.021 0.12 0.04 0.181 0.061 c 0.069 0.029 0.119 0.06 0.18 0.09 c 0.05 0.04 0.1 0.08 0.149 0.13 c 0.04 0.04 0.091 0.09 0.12 0.149 c 0.04 0.051 0.07 0.11 0.101 0.171 c 0.02 0.06 0.04 0.13 0.05 0.189 c 0.02 0.061 0.02 0.13 0.02 0.19 c 0 0.14 -0.02 0.27 -0.069 0.39 s -0.13 0.23 -0.221 0.32 C 86.88 61.02 86.63 61.13 86.359 61.13 z" style="stroke: none; stroke-width: 1; stroke-dasharray: none; stroke-linecap: butt; stroke-linejoin: miter; stroke-miterlimit: 10; fill: rgb(248,134,15); fill-rule: nonzero; opacity: 1;" transform=" matrix(1 0 0 1 0 0) " stroke-linecap="round" />
	<path d="M 83.12 10.34 c -0.271 0 -0.521 -0.11 -0.71 -0.29 c -0.181 -0.19 -0.29 -0.44 -0.29 -0.71 c 0 -0.26 0.109 -0.52 0.29 -0.71 C 82.64 8.4 82.99 8.3 83.31 8.36 c 0.07 0.01 0.13 0.03 0.19 0.06 c 0.06 0.02 0.12 0.05 0.18 0.09 c 0.05 0.03 0.101 0.08 0.15 0.12 c 0.18 0.19 0.29 0.45 0.29 0.71 c 0 0.07 -0.011 0.13 -0.021 0.2 c -0.01 0.06 -0.03 0.12 -0.06 0.18 c -0.021 0.06 -0.05 0.12 -0.09 0.18 c -0.03 0.05 -0.08 0.1 -0.12 0.15 c -0.05 0.04 -0.101 0.09 -0.15 0.12 c -0.06 0.04 -0.12 0.07 -0.18 0.09 c -0.061 0.03 -0.12 0.05 -0.19 0.06 C 83.25 10.33 83.189 10.34 83.12 10.34 z" style="stroke: none; stroke-width: 1; stroke-dasharray: none; stroke-linecap: butt; stroke-linejoin: miter; stroke-miterlimit: 10; fill: rgb(248,134,15); fill-rule: nonzero; opacity: 1;" transform=" matrix(1 0 0 1 0 0) " stroke-linecap="round" />
	<path d="M 59.714 23.144 c -0.319 0 -0.65 -0.035 -0.989 -0.106 c -1.232 -0.26 -2.479 -0.97 -3.51 -2.001 c -1.03 -1.03 -1.741 -2.276 -2.001 -3.51 c -0.288 -1.367 0.017 -2.62 0.835 -3.438 c 0.818 -0.819 2.069 -1.125 3.439 -0.834 c 1.232 0.26 2.479 0.97 3.509 2 c 2.275 2.275 2.788 5.328 1.167 6.949 l 0 0 C 61.548 22.819 60.686 23.144 59.714 23.144 z M 56.483 15.145 c -0.354 0 -0.743 0.079 -1.021 0.357 c -0.454 0.454 -0.378 1.205 -0.292 1.612 c 0.179 0.846 0.71 1.759 1.458 2.508 c 0.749 0.749 1.663 1.28 2.509 1.458 c 0.409 0.087 1.159 0.162 1.612 -0.292 l 0 0 c 0.698 -0.699 0.391 -2.563 -1.167 -4.121 c -0.748 -0.748 -1.662 -1.28 -2.508 -1.458 C 56.917 15.177 56.707 15.145 56.483 15.145 z" style="stroke: none; stroke-width: 1; stroke-dasharray: none; stroke-linecap: butt; stroke-linejoin: miter; stroke-miterlimit: 10; fill: rgb(248,134,15); fill-rule: nonzero; opacity: 1;" transform=" matrix(1 0 0 1 0 0) " stroke-linecap="round" />
	<path d="M 45.377 37.524 L 45.377 37.524 c -0.265 0 -0.52 -0.105 -0.707 -0.293 l -5.649 -5.649 c -0.391 -0.391 -0.391 -1.023 0 -1.414 l 4.93 -4.93 c 0.391 -0.391 1.023 -0.391 1.414 0 l 5.649 5.649 c 0.188 0.188 0.293 0.442 0.293 0.707 s -0.105 0.52 -0.293 0.707 l -4.931 4.931 C 45.896 37.418 45.642 37.524 45.377 37.524 z M 41.142 30.875 l 4.235 4.235 l 3.517 -3.517 l -4.235 -4.235 L 41.142 30.875 z" style="stroke: none; stroke-width: 1; stroke-dasharray: none; stroke-linecap: butt; stroke-linejoin: miter; stroke-miterlimit: 10; fill: rgb(0,35,86); fill-rule: nonzero; opacity: 1;" transform=" matrix(1 0 0 1 0 0) " stroke-linecap="round" />
	<path d="M 58.961 85.981 c -0.256 0 -0.512 -0.098 -0.707 -0.293 L 42.915 70.35 c -2.339 -2.339 -2.339 -6.145 0 -8.483 c 2.338 -2.339 6.145 -2.341 8.483 0 l 2.285 2.286 c 0.755 0.755 1.76 1.171 2.828 1.171 c 1.067 0 2.072 -0.416 2.827 -1.171 c 1.559 -1.56 1.559 -4.096 0 -5.655 L 48.584 47.742 c -0.391 -0.391 -0.391 -1.023 0 -1.414 s 1.023 -0.391 1.414 0 l 10.755 10.755 c 2.339 2.339 2.339 6.145 0 8.483 c -2.338 2.339 -6.146 2.341 -8.483 0 l -2.285 -2.286 c -1.56 -1.559 -4.097 -1.559 -5.655 0 c -1.559 1.56 -1.559 4.096 0 5.655 l 15.339 15.339 c 0.391 0.391 0.391 1.023 0 1.414 C 59.473 85.884 59.217 85.981 58.961 85.981 z" style="stroke: none; stroke-width: 1; stroke-dasharray: none; stroke-linecap: butt; stroke-linejoin: miter; stroke-miterlimit: 10; fill: rgb(0,35,86); fill-rule: nonzero; opacity: 1;" transform=" matrix(1 0 0 1 0 0) " stroke-linecap="round" />
</g>
</svg>