<?xml version="1.0" encoding="UTF-8" standalone="no"?>
<!-- Created with Inkscape (http://www.inkscape.org/) -->

<svg
   xmlns:dc="http://purl.org/dc/elements/1.1/"
   xmlns:cc="http://creativecommons.org/ns#"
   xmlns:rdf="http://www.w3.org/1999/02/22-rdf-syntax-ns#"
   xmlns:svg="http://www.w3.org/2000/svg"
   xmlns="http://www.w3.org/2000/svg"
   xmlns:sodipodi="http://sodipodi.sourceforge.net/DTD/sodipodi-0.dtd"
   xmlns:inkscape="http://www.inkscape.org/namespaces/inkscape"
   width="48pt"
   height="48pt"
   viewBox="0 0 16.933334 16.933333"
   version="1.1"
   id="svg979"
   inkscape:version="0.92.4 (5da689c313, 2019-01-14)"
   sodipodi:docname="2 - Radio.svg"
   inkscape:export-filename="E:\TR Design Studio Creative\Project Design\TR Creative Design\Icon Design\Project Hiring\Icon Icons\004 - Cinema\Send\02 - Solid\1 - Ticket.png"
   inkscape:export-xdpi="768"
   inkscape:export-ydpi="768">
  <defs
     id="defs973" />
  <sodipodi:namedview
     id="base"
     pagecolor="#ffffff"
     bordercolor="#666666"
     borderopacity="1.0"
     inkscape:pageopacity="0.0"
     inkscape:pageshadow="2"
     inkscape:zoom="8.078125"
     inkscape:cx="32"
     inkscape:cy="32"
     inkscape:document-units="pt"
     inkscape:current-layer="layer1"
     showgrid="false"
     units="pt"
     inkscape:window-width="1366"
     inkscape:window-height="716"
     inkscape:window-x="-8"
     inkscape:window-y="-8"
     inkscape:window-maximized="1"
     inkscape:snap-bbox="true"
     inkscape:bbox-nodes="true"
     inkscape:snap-nodes="false"
     showguides="false">
    <inkscape:grid
       type="xygrid"
       id="grid1526" />
    <sodipodi:guide
       position="0.97013909,15.963209"
       orientation="56.666615,0"
       id="guide1528"
       inkscape:locked="false" />
    <sodipodi:guide
       position="0.97013909,0.97016731"
       orientation="0,56.666667"
       id="guide1530"
       inkscape:locked="false" />
    <sodipodi:guide
       position="15.963195,0.97016731"
       orientation="-56.666615,0"
       id="guide1532"
       inkscape:locked="false" />
    <sodipodi:guide
       position="15.963195,15.963209"
       orientation="0,-56.666667"
       id="guide1534"
       inkscape:locked="false" />
  </sodipodi:namedview>
  <metadata
     id="metadata976">
    <rdf:RDF>
      <cc:Work
         rdf:about="">
        <dc:format>image/svg+xml</dc:format>
        <dc:type
           rdf:resource="http://purl.org/dc/dcmitype/StillImage" />
        <dc:title></dc:title>
      </cc:Work>
    </rdf:RDF>
  </metadata>
  <g
     inkscape:label="Layer 1"
     inkscape:groupmode="layer"
     id="layer1"
     transform="translate(0,-280.06668)">
    <path
       id="path1591"
       style="color:#000000;font-style:normal;font-variant:normal;font-weight:normal;font-stretch:normal;font-size:medium;line-height:normal;font-family:sans-serif;font-variant-ligatures:normal;font-variant-position:normal;font-variant-caps:normal;font-variant-numeric:normal;font-variant-alternates:normal;font-feature-settings:normal;text-indent:0;text-align:start;text-decoration:none;text-decoration-line:none;text-decoration-style:solid;text-decoration-color:#000000;letter-spacing:normal;word-spacing:normal;text-transform:none;writing-mode:lr-tb;direction:ltr;text-orientation:mixed;dominant-baseline:auto;baseline-shift:baseline;text-anchor:start;white-space:normal;shape-padding:0;clip-rule:nonzero;display:inline;overflow:visible;visibility:visible;isolation:auto;mix-blend-mode:normal;color-interpolation:sRGB;color-interpolation-filters:linearRGB;solid-color:#000000;solid-opacity:1;vector-effect:none;fill:#000000;fill-opacity:1;fill-rule:nonzero;stroke:none;stroke-width:0.52916664;stroke-linecap:round;stroke-linejoin:round;stroke-miterlimit:4;stroke-dasharray:none;stroke-dashoffset:0;stroke-opacity:1;color-rendering:auto;image-rendering:auto;shape-rendering:auto;text-rendering:auto;enable-background:accumulate"
       d="m 14.942182,281.03998 c -0.189251,-7.4e-4 -0.342856,0.15288 -0.342113,0.34212 v 4.83283 c 7.5e-4,0.18822 0.153904,0.34019 0.342113,0.33945 0.18717,-7.4e-4 0.338721,-0.15227 0.339451,-0.33945 v -4.83283 c 7.39e-4,-0.18821 -0.15124,-0.34138 -0.339451,-0.34212 z m -12.268801,4.02283 c -0.3626293,0 -0.6669203,0.30362 -0.666919,0.66625 v 0.408 h 2.470666 v -0.408 c 0,-0.36263 -0.3016288,-0.66625 -0.6642581,-0.66625 z m 3.0517263,0 c -0.3626295,0 -0.6669204,0.30362 -0.6669204,0.66625 v 0.408 h 3.8337916 v -0.408 c 0,-0.36263 -0.3042883,-0.66625 -0.666919,-0.66625 z m -3.3785301,1.75582 c -0.7647125,0 -1.37643582,0.61373 -1.3764384,1.37844 v 4.43015 c 3.86e-6,0.76471 0.6117272,1.37844 1.3764384,1.37844 H 12.542069 c 0.764714,0 1.37577,-0.61373 1.375771,-1.37844 v -4.43015 c -3e-6,-0.76471 -0.611057,-1.37844 -1.375771,-1.37844 z m 12.2534918,0.35742 v 3.74793 h 0.681564 c 0.371684,0 0.681562,-0.30987 0.681562,-0.68156 v -2.38747 c 0,-0.37169 -0.309861,-0.6789 -0.681562,-0.6789 z M 4.5476804,287.5155 c 1.5957246,0 2.8953174,1.29969 2.895312,2.89532 -3.7e-6,1.59564 -1.2995939,2.89797 -2.895312,2.89797 -1.5957193,0 -2.8959768,-1.30233 -2.8959781,-2.89797 -6.4e-6,-1.59563 1.3002523,-2.89532 2.8959781,-2.89532 z m 4.2584379,0 h 4.0907107 c 0.187168,7.4e-4 0.338719,0.15228 0.339449,0.33945 7.49e-4,0.18821 -0.151239,0.34138 -0.339449,0.34212 H 8.8061183 c -0.1882106,-7.5e-4 -0.3401901,-0.15391 -0.3394505,-0.34212 7.156e-4,-0.18717 0.1522806,-0.33872 0.3394505,-0.33945 z m -4.2584379,0.68157 c -1.2274099,0 -2.2164161,0.98649 -2.216411,2.21375 0,1.22726 0.9890049,2.2164 2.216411,2.2164 1.2274049,0 2.2157439,-0.98914 2.2157449,-2.2164 4.1e-6,-1.22726 -0.9883363,-2.21375 -2.2157449,-2.21375 z m 4.2584379,0.5105 h 4.0907107 c 0.188205,7.5e-4 0.34018,0.15391 0.339449,0.34211 -3.75e-4,0.18743 -0.152019,0.33938 -0.339449,0.34012 H 8.8061183 c -0.1874312,-7.5e-4 -0.3390886,-0.15269 -0.3394505,-0.34012 -7.156e-4,-0.1882 0.1512449,-0.34137 0.3394505,-0.34211 z m -4.2584379,0.51117 c 0.6546791,0 1.192075,0.5374 1.1920698,1.19208 -3.7e-6,0.65467 -0.5373944,1.19473 -1.1920698,1.19473 -0.6546767,0 -1.192732,-0.54006 -1.1927359,-1.19473 -5.1e-6,-0.65468 0.5380567,-1.19208 1.1927359,-1.19208 z m 0,0.68157 c -0.2863698,0 -0.5111735,0.2242 -0.5111723,0.51051 2.5e-6,0.28629 0.224809,0.51316 0.5111723,0.51316 0.2863622,0 0.510505,-0.22687 0.5105065,-0.51316 2.3e-6,-0.28631 -0.2241369,-0.51051 -0.5105065,-0.51051 z m 4.2584379,0 h 4.0907107 c 0.18821,7.4e-4 0.340189,0.1539 0.339449,0.34211 -7.15e-4,0.18718 -0.152281,0.33872 -0.339449,0.33945 H 8.8061183 c -0.1871699,-7.4e-4 -0.3387202,-0.15227 -0.3394505,-0.33945 -7.498e-4,-0.18821 0.1512399,-0.34138 0.3394505,-0.34211 z m 0.6496147,1.29523 c 0.4718836,0 0.870786,0.31945 1.004374,0.75013 h 0.05192 c 0.188205,7.4e-4 0.340182,0.1539 0.339451,0.3421 -7.16e-4,0.18717 -0.152281,0.33872 -0.339451,0.33945 h -0.07321 c -0.15305,0.3961 -0.5360639,0.68157 -0.9830749,0.68157 -0.5791399,0 -1.0569466,-0.47716 -1.0569554,-1.0563 0,-0.59987 0.5040339,-1.05695 1.0569473,-1.05695 z m 3.764571,0.75013 h 0.01597 c 0.189246,-7.5e-4 0.342849,0.15286 0.342113,0.3421 -7.49e-4,0.18821 -0.153903,0.34019 -0.342113,0.33945 h -0.03794 c -0.153059,0.39607 -0.536077,0.68157 -0.983075,0.68157 -0.579139,0 -1.056946,-0.47716 -1.056954,-1.0563 -4e-6,-0.57914 0.465336,-1.05695 1.056954,-1.05695 0.525539,0 0.871488,0.3194 1.005048,0.75013 z m -3.764571,-0.0685 c -0.2108289,0 -0.3753934,0.16463 -0.375392,0.37538 2.7e-6,0.21077 0.1645645,0.37473 0.375392,0.37473 0.210828,0 0.3747237,-0.16396 0.3747265,-0.37473 10e-7,-0.21075 -0.1639012,-0.37538 -0.3747265,-0.37538 z m 2.759532,0 c -0.210827,0 -0.374729,0.16463 -0.374726,0.37538 2e-6,0.21077 0.163899,0.37473 0.374726,0.37473 0.23029,0 0.358738,-0.16821 0.358738,-0.37473 0,-0.23757 -0.15459,-0.37538 -0.358738,-0.37538 z m -9.8839956,2.81011 v 0.32481 c 5.2e-6,0.821 0.9805467,1.30995 1.6373486,0.81735 l 1.5241982,-1.14216 z m 7.0645604,0 1.5235342,1.14216 c 0.656801,0.4926 1.635346,0.004 1.635353,-0.81735 v -0.32481 z"
       inkscape:connector-curvature="0"
       sodipodi:nodetypes="cccccccscccsssssccssssccssccssccsssscssscscccccccscscscccccccscscsscscscccccccccccccscccccccscccscscsccccccccccccccc" />
  </g>
</svg>
