<?xml version="1.0" encoding="UTF-8" standalone="no"?>
<!-- Created with Inkscape (http://www.inkscape.org/) -->

<svg
   xmlns:dc="http://purl.org/dc/elements/1.1/"
   xmlns:cc="http://creativecommons.org/ns#"
   xmlns:rdf="http://www.w3.org/1999/02/22-rdf-syntax-ns#"
   xmlns:svg="http://www.w3.org/2000/svg"
   xmlns="http://www.w3.org/2000/svg"
   xmlns:sodipodi="http://sodipodi.sourceforge.net/DTD/sodipodi-0.dtd"
   xmlns:inkscape="http://www.inkscape.org/namespaces/inkscape"
   width="48pt"
   height="48pt"
   viewBox="0 0 16.933334 16.933333"
   version="1.1"
   id="svg979"
   inkscape:version="0.92.4 (5da689c313, 2019-01-14)"
   sodipodi:docname="2 - Radio.svg"
   inkscape:export-filename="E:\TR Design Studio Creative\Project Design\TR Creative Design\Icon Design\Project Hiring\Icon Icons\004 - Cinema\Send\01 - Line\1 - Ticket.png"
   inkscape:export-xdpi="768"
   inkscape:export-ydpi="768">
  <defs
     id="defs973" />
  <sodipodi:namedview
     id="base"
     pagecolor="#ffffff"
     bordercolor="#666666"
     borderopacity="1.0"
     inkscape:pageopacity="0.0"
     inkscape:pageshadow="2"
     inkscape:zoom="8.078125"
     inkscape:cx="32"
     inkscape:cy="32"
     inkscape:document-units="pt"
     inkscape:current-layer="layer1"
     showgrid="false"
     units="pt"
     inkscape:window-width="1366"
     inkscape:window-height="716"
     inkscape:window-x="-8"
     inkscape:window-y="-8"
     inkscape:window-maximized="1"
     inkscape:snap-bbox="true"
     inkscape:bbox-nodes="true"
     inkscape:snap-nodes="false"
     showguides="false">
    <inkscape:grid
       type="xygrid"
       id="grid1526" />
    <sodipodi:guide
       position="0.97013909,15.963209"
       orientation="56.666615,0"
       id="guide1528"
       inkscape:locked="false" />
    <sodipodi:guide
       position="0.97013909,0.97016731"
       orientation="0,56.666667"
       id="guide1530"
       inkscape:locked="false" />
    <sodipodi:guide
       position="15.963195,0.97016731"
       orientation="-56.666615,0"
       id="guide1532"
       inkscape:locked="false" />
    <sodipodi:guide
       position="15.963195,15.963209"
       orientation="0,-56.666667"
       id="guide1534"
       inkscape:locked="false" />
  </sodipodi:namedview>
  <metadata
     id="metadata976">
    <rdf:RDF>
      <cc:Work
         rdf:about="">
        <dc:format>image/svg+xml</dc:format>
        <dc:type
           rdf:resource="http://purl.org/dc/dcmitype/StillImage" />
        <dc:title></dc:title>
      </cc:Work>
    </rdf:RDF>
  </metadata>
  <g
     inkscape:label="Layer 1"
     inkscape:groupmode="layer"
     id="layer1"
     transform="translate(0,-280.06668)">
    <path
       d="m 14.979104,281.36485 c -0.180062,0.004 -0.323557,0.15221 -0.320178,0.33227 v 5.53789 h -0.263529 c -0.340572,-0.59056 -0.976553,-0.99108 -1.704016,-0.99108 H 9.2005971 v -0.38957 c 0,-0.3468 -0.2910087,-0.63781 -0.6378127,-0.63781 H 6.1687586 c -0.3468026,0 -0.6346301,0.29101 -0.6346301,0.63781 v 0.38957 H 4.9784293 v -0.38957 c 0,-0.3468 -0.2884641,-0.63781 -0.6352667,-0.63781 h -1.089756 c -0.3468036,0 -0.6378126,0.29101 -0.6378126,0.63781 v 0.41884 c -0.9300708,0.15643 -1.64545421,0.9681 -1.6454552,1.94081 v 4.23682 c 2.59e-6,1.07886 0.878935,1.95987 1.9560864,1.96753 v 0.31318 c 5e-6,0.78517 0.9377504,1.25277 1.5658879,0.78167 L 5.9529718,294.419 h 3.7256666 l 1.4608596,1.09421 c 0.628137,0.4711 1.563973,0.004 1.563978,-0.78167 v -0.31318 c 1.078011,-0.006 1.955447,-0.88803 1.95545,-1.96753 v -1.62891 h 0.652452 c 0.355463,0 0.651817,-0.29635 0.651817,-0.65182 v -2.28328 c 0,-0.35545 -0.296339,-0.65181 -0.651817,-0.65181 v -5.53789 c 0.0034,-0.18478 -0.147496,-0.33575 -0.332274,-0.33227 z m -11.7116935,4.50352 h 1.0585656 v 0.37556 H 3.2674105 Z m 2.9185345,0 h 2.362199 v 0.37556 H 6.185945 Z m -3.2457158,1.02736 h 9.7511518 c 0.731337,0 1.315725,0.58695 1.315727,1.31828 v 4.23682 c -1e-6,0.73133 -0.58439,1.31826 -1.315727,1.31826 H 2.9402292 c -0.7313369,0 -1.3182723,-0.58693 -1.3182737,-1.31826 v -4.23682 c 1.4e-6,-0.73133 0.5869368,-1.31828 1.3182737,-1.31828 z m 2.1050368,0.66647 c -1.5260749,0 -2.7714926,1.24295 -2.7714939,2.76894 -6.2e-6,1.526 1.2454128,2.77149 2.7714939,2.77149 1.5260801,0 2.7695892,-1.24549 2.7695842,-2.77149 -2.3e-6,-1.52599 -1.2435091,-2.76894 -2.7695842,-2.76894 z m 4.0420271,0 c -0.4247047,0.0297 -0.3944048,0.66286 0.03119,0.65181 h 3.9121729 c 0.425262,-0.009 0.425262,-0.64263 0,-0.65181 H 9.1184825 c -0.010384,-4.9e-4 -0.0208,-4.9e-4 -0.031189,0 z m 5.5716329,0.32462 h 0.652452 v 2.28328 h -0.652452 z m -9.61366,0.32719 c 1.1738353,0 2.1171297,0.94344 2.1171311,2.11713 3.6e-6,1.1737 -0.9432908,2.11969 -2.1171311,2.11969 -1.1738404,0 -2.1190456,-0.94599 -2.1190408,-2.11969 1.4e-6,-1.17369 0.9452043,-2.11713 2.1190408,-2.11713 z m 4.0732175,0.48887 c -0.4444099,-0.01 -0.4444099,0.66178 0,0.65181 h 3.9121735 c 0.44441,0.01 0.44441,-0.66179 0,-0.65181 z m -4.0732175,0.48823 c -0.6261084,0 -1.1400477,0.51393 -1.1400427,1.14003 3.9e-6,0.6261 0.5139401,1.14068 1.1400427,1.14068 0.6261012,1e-5 1.1406755,-0.51458 1.140679,-1.14068 6.3e-6,-0.6261 -0.5145704,-1.14003 -1.140679,-1.14003 z m 0,0.6518 c 0.2738679,0 0.4888651,0.21443 0.4888625,0.48823 -1.4e-6,0.2738 -0.2149985,0.49078 -0.4888625,0.49078 -0.2738651,0 -0.4882235,-0.21698 -0.4882261,-0.49078 -2.3e-6,-0.2738 0.2143571,-0.48823 0.4882261,-0.48823 z m 4.0732175,0 c -0.4444099,-0.01 -0.4444099,0.6618 0,0.65182 h 3.9121735 c 0.44441,0.01 0.44441,-0.66179 0,-0.65182 z m 0.6206263,1.23872 c -0.5538698,0 -1.010191,0.45695 -1.0101884,1.01082 7.2e-6,0.55386 0.456326,1.01018 1.0101884,1.01018 0.4275122,0 0.7931872,-0.273 0.9388962,-0.6518 h 0.06938 c 0.434654,0 0.434654,-0.65183 0,-0.65183 h -0.04901 c -0.127138,-0.41193 -0.507944,-0.71737 -0.9592652,-0.71737 z m 2.6390932,0 c -0.553869,0 -1.010191,0.45695 -1.010188,1.01082 7e-6,0.55386 0.456325,1.01018 1.010188,1.01018 0.4275,0 0.794435,-0.27301 0.940806,-0.6518 h 0.03629 c 0.434655,0 0.434655,-0.65183 0,-0.65183 h -0.01591 c -0.127759,-0.41188 -0.509889,-0.71737 -0.961175,-0.71737 z m -2.6390932,0.65245 c 0.20163,0 0.3583732,0.1568 0.3583722,0.35837 -3e-6,0.20157 -0.1567448,0.35838 -0.3583722,0.35838 -0.2016264,0 -0.3583695,-0.15681 -0.3583717,-0.35838 -1.3e-6,-0.20157 0.156743,-0.35837 0.3583717,-0.35837 z m 2.6390932,0 c 0.201629,0 0.359011,0.1568 0.359009,0.35837 -3e-6,0.20157 -0.157382,0.35838 -0.359009,0.35838 -0.201627,0 -0.358369,-0.15681 -0.358371,-0.35838 -10e-7,-0.20157 0.156741,-0.35837 0.358371,-0.35837 z M 3.5780419,294.419 h 1.2877199 l -0.7657571,0.5748 c -0.2312629,0.17344 -0.5219602,0.0269 -0.5219628,-0.26226 z m 7.1865331,0 h 1.286447 v 0.31254 c -3e-6,0.28907 -0.288154,0.4357 -0.519416,0.26226 z"
       style="color:#000000;font-style:normal;font-variant:normal;font-weight:normal;font-stretch:normal;font-size:medium;line-height:normal;font-family:sans-serif;font-variant-ligatures:normal;font-variant-position:normal;font-variant-caps:normal;font-variant-numeric:normal;font-variant-alternates:normal;font-feature-settings:normal;text-indent:0;text-align:start;text-decoration:none;text-decoration-line:none;text-decoration-style:solid;text-decoration-color:#000000;letter-spacing:normal;word-spacing:normal;text-transform:none;writing-mode:lr-tb;direction:ltr;text-orientation:mixed;dominant-baseline:auto;baseline-shift:baseline;text-anchor:start;white-space:normal;shape-padding:0;clip-rule:nonzero;display:inline;overflow:visible;visibility:visible;isolation:auto;mix-blend-mode:normal;color-interpolation:sRGB;color-interpolation-filters:linearRGB;solid-color:#000000;solid-opacity:1;vector-effect:none;fill:#000000;fill-opacity:1;fill-rule:nonzero;stroke:none;stroke-width:0.5291667;stroke-linecap:round;stroke-linejoin:round;stroke-miterlimit:4;stroke-dasharray:none;stroke-dashoffset:0;stroke-opacity:1;color-rendering:auto;image-rendering:auto;shape-rendering:auto;text-rendering:auto;enable-background:accumulate"
       id="path947"
       inkscape:connector-curvature="0"
       sodipodi:nodetypes="ccccccssssccsssscccccccccccccssscccccccccccccssccssccsscscscccccccccccscscscccccscccsscscscccccscscsscsscscsscsscscsscscscccccccccc" />
  </g>
</svg>
