<?xml version="1.0" ?><svg viewBox="0 0 64 64" xmlns="http://www.w3.org/2000/svg"><title/><g id="Satellite"><path d="M62.7088,48.2212l-5.5,5.51-.71.7-.7.71-5.51,5.5a1.0018,1.0018,0,0,1-1.41,0l-4.35-4.35-.71-.71-.7-.7-3.65-3.65-.71-.71-.7-.7-4.35-4.35a1.0078,1.0078,0,0,1,0-1.42l5.5-5.5.7-.71.71-.7,5.5-5.5a1.0145,1.0145,0,0,1,1.41,0l9.41,9.41.71.7,5.06,5.06A.9959.9959,0,0,1,62.7088,48.2212Z" style="fill:#949bdd"/><path d="M46.154,21.9837,42.0163,17.846a1,1,0,0,0-1.1543-.1875l-5.5175,2.7588a1,1,0,0,0-.26,1.6015l6.8965,6.8965a1,1,0,0,0,1.6015-.26l2.7588-5.5176A1,1,0,0,0,46.154,21.9837Z" style="fill:#e84a5f"/><path d="M30.2917,39.2249l-5.5166-5.5166a1,1,0,0,0-1.414,0l-3.1036,3.1035a1,1,0,0,0,.1993,1.5684A14.8291,14.8291,0,0,1,25.62,43.5433a1,1,0,0,0,.7353.4843,1.0871,1.0871,0,0,0,.126.0078,1,1,0,0,0,.707-.2929l3.1035-3.1035A1,1,0,0,0,30.2917,39.2249Z" style="fill:#c6cbef"/><path d="M44.7751,28.88,35.12,19.2249a1,1,0,0,0-1.4141,0L21.2917,31.639a1,1,0,0,0,0,1.414l9.6553,9.6553a1,1,0,0,0,1.4141,0l12.414-12.4141A1,1,0,0,0,44.7751,28.88Z" style="fill:#d6daf2"/><path d="M27.3425,42.5276A16.6,16.6,0,0,0,1.2917,39.2249a1,1,0,0,0,0,1.4141L23.3611,62.7083a.9995.9995,0,0,0,1.414,0A16.605,16.605,0,0,0,27.3425,42.5276Z" style="fill:#d6daf2"/><path d="M8.2234,55.7767a3.02,3.02,0,0,0-4.1729,0,2.9507,2.9507,0,1,0,4.1729,0Z" style="fill:#e84a5f"/><path d="M32.6587,17.1712a.9993.9993,0,0,1-.3.71l-5.5,5.5-.7.71-.71.71-5.5,5.49a.9921.9921,0,0,1-.71.3,1.0087,1.0087,0,0,1-.71-.3l-4.35-4.35-.7-.7-.71-.71-3.64-3.64-.71-.71-.71-.71-4.35-4.35a.996.996,0,0,1,0-1.41l5.5-5.5.71-.71.71-.7,5.5-5.51a.9959.9959,0,0,1,1.41,0l4.35,4.35.71.71.7.71,3.65,3.64.7.71,5.06,5.06A.9765.9765,0,0,1,32.6587,17.1712Z" style="fill:#949bdd"/><g style="opacity:0.15"><path d="M62.7088,46.8113l-4.35-4.35-.71-.71-.71-.7-3.64-3.64-1.42-1.42-4.35-4.35a1.0145,1.0145,0,0,0-1.41,0l-4.94,4.94c.13.48.25.98.35,1.47l-.16-.16a.9824.9824,0,0,1,.22.43c0,.02.01.04.01.06.21,1.01.37,2.03.5,3.06a38.9755,38.9755,0,0,1,.28,4.06c.01.24.01.49.01.73,0,.72-.02,1.43-.06,2.14a37.4075,37.4075,0,0,1-.62,5.1l1.41,1.41.7.7.71.71,4.35,4.35a1.0018,1.0018,0,0,0,1.41,0l5.51-5.5.7-.71.71-.7,5.5-5.51A.9959.9959,0,0,0,62.7088,46.8113Z" style="fill:#0f3460"/><path d="M44.7788,28.8813l-.8726-.8726,2.4353-4.8707a1,1,0,0,0-.1875-1.1543l-1.3618-1.3618,2.9136-2.9136a1,1,0,1,0-1.4141-1.4141l-2.9135,2.9136L42.0163,17.846a1,1,0,0,0-1.1543-.1875l-4.8706,2.4354-.8726-.8727a.9959.9959,0,0,0-1.41,0l-1.14,1.14a38.8661,38.8661,0,0,1,8.02,14.12l4.19-4.19A.9959.9959,0,0,0,44.7788,28.8813Z" style="fill:#0f3460"/><path d="M32.3587,16.4712l-4.35-4.35-.71-.71-.7-.71-3.65-3.64-.7-.71-.71-.71-4.35-4.35a.9959.9959,0,0,0-1.41,0l-5.5,5.51-.71.7-.21.21c.76.12,1.5.25,2.24.41a39.7777,39.7777,0,0,1,5.76,1.7c.67.27,1.34.54,2,.84a36.5454,36.5454,0,0,1,4.74,2.54c.58.35,1.14.73,1.7,1.12a39.7816,39.7816,0,0,1,5.47,4.65l1.09-1.09a.9993.9993,0,0,0,.3-.71A.9765.9765,0,0,0,32.3587,16.4712Z" style="fill:#0f3460"/></g><path d="M62.707,46.8105l-5.0576-5.0576-5.0576-5.0576-5.0576-5.0576a1.0294,1.0294,0,0,0-1.4141,0l-5.4991,5.5L39.2764,35.793l5.5-5.5a1,1,0,0,0,0-1.4141l-.87-.87,2.4362-4.8724a1,1,0,0,0-.1875-1.1543l-1.3618-1.3618L47.707,17.707a1,1,0,0,0-1.414-1.414l-2.9136,2.9135-1.3618-1.3618a1,1,0,0,0-1.1543-.1875l-4.8724,2.4362-.87-.87a1,1,0,0,0-1.4141,0l-5.5,5.5L26.8624,23.379l5.5-5.4991a1,1,0,0,0,0-1.4141l-5.0576-5.0576L22.2471,6.3506,17.19,1.293a1,1,0,0,0-1.4141,0L9.5684,7.5,3.3623,13.707a1,1,0,0,0,0,1.4141l5.0566,5.0576,5.0577,5.0567,5.0576,5.0576a1,1,0,0,0,1.414,0l5.5-5.5,1.3448,1.3447-5.5,5.5a1,1,0,0,0,0,1.4141l1.3623,1.3623-1.8684,1.8684A16.5633,16.5633,0,0,0,1.293,39.2236a1,1,0,0,0,0,1.4141L6.47,45.8151,5.4451,55.0262a2.85,2.85,0,0,0-1.3933.7492A2.9507,2.9507,0,1,0,8.999,58.5521L18.1849,57.53l5.1774,5.1773a1,1,0,0,0,1.4141,0,16.5955,16.5955,0,0,0,2.9367-19.4895l1.8728-1.8728,1.3623,1.3623a1,1,0,0,0,1.4141,0l5.5-5.5,1.3447,1.3448-5.5,5.5a1,1,0,0,0,0,1.414l5.0576,5.0576,5.0567,5.0577,5.0576,5.0566a1,1,0,0,0,1.4141,0L56.5,54.4316l6.207-6.207A1,1,0,0,0,62.707,46.8105ZM25.4482,21.9648l-1.8217-1.8212-1.8218-1.8214,4.793-4.7929,3.6435,3.6436Zm-5.0576-5.0566-3.6435-3.6436L21.54,8.4717l3.6436,3.6435ZM16.4824,3.4141,20.126,7.0576l-4.793,4.793L11.69,8.207Zm-6.207,6.207,3.6435,3.6435L9.126,18.0576,5.4834,14.4141Zm5.0576,5.0576,3.6435,3.6435L16.58,20.7183l-2.3965,2.396L10.54,19.4717Zm3.9082,13.4932-3.6435-3.6435,2.3964-2.3961,2.3965-2.396,1.8218,1.8213,1.8217,1.8214Zm21.8721-8.4033,3.1181,3.1181-1.8161,3.6312-4.9332-4.9332ZM11.6206,50.9653,7.4451,55.1408l.8365-7.5145Zm-4.81,7.5689a.9508.9508,0,1,1,0-1.3447A.9513.9513,0,0,1,6.8105,58.5342Zm2.0487-1.9793,4.1755-4.1755,3.339,3.339Zm15.1857,4.0066L3.4375,39.9541A14.6054,14.6054,0,0,1,24.0449,60.5615ZM26.65,41.4521c-.0389-.0554-.0848-.1067-.1245-.1618q-.3-.4164-.6276-.8162c-.0789-.0963-.157-.1926-.2382-.2873-.2825-.33-.574-.6531-.8837-.9632s-.6339-.6015-.9637-.8842c-.0944-.0808-.19-.1587-.2861-.2372q-.4011-.3287-.8189-.63c-.0544-.0391-.105-.0844-.16-.1229l1.5214-1.5215,4.1026,4.1026Zm5.0049-.8662L30.293,39.2236,24.7764,33.707l-1.3623-1.3623,11-11,.6682.6683.0036.0046,6.8965,6.8965.003.0019.67.67Zm19.08,6.667-3.6436-3.6435,4.793-4.793L55.5283,42.46ZM46.8271,33.7588l3.6436,3.6435-4.7929,4.793-1.8214-1.8218-1.8212-1.8217ZM40.621,39.9659l1.8214,1.8217,1.8213,1.8218-2.396,2.3965-2.3961,2.3964-3.6435-3.6435Zm2.6607,7.454,2.3961-2.3964,3.6435,3.6435-4.793,4.793-3.6426-3.6436Zm6.3042,11.0967L45.9424,54.874l4.793-4.7929,3.6435,3.6435Zm6.2071-6.2061L52.1494,48.667l4.793-4.793,3.6435,3.6436Z" style="fill:#0f3460"/></g></svg>