<svg xmlns="http://www.w3.org/2000/svg" xmlns:xlink="http://www.w3.org/1999/xlink" version="1.1" width="256" height="256" viewBox="0 0 256 256" xml:space="preserve">

<defs>
</defs>
<g style="stroke: none; stroke-width: 0; stroke-dasharray: none; stroke-linecap: butt; stroke-linejoin: miter; stroke-miterlimit: 10; fill: none; fill-rule: nonzero; opacity: 1;" transform="translate(1.4065934065934016 1.4065934065934016) scale(2.81 2.81)" >
	<path d="M 51.466 63.135 c -0.266 0 -0.52 -0.105 -0.707 -0.293 L 27.673 39.755 c -1.532 -1.532 -2.376 -3.569 -2.376 -5.736 s 0.844 -4.204 2.376 -5.736 l 0.609 -0.609 c 1.532 -1.532 3.569 -2.376 5.736 -2.376 s 4.204 0.844 5.736 2.376 l 23.087 23.086 c 0.188 0.188 0.293 0.441 0.293 0.707 s -0.105 0.52 -0.293 0.707 L 52.173 62.842 C 51.985 63.029 51.731 63.135 51.466 63.135 z M 34.019 27.296 c -1.633 0 -3.168 0.636 -4.322 1.791 l -0.609 0.609 c -1.155 1.154 -1.791 2.689 -1.791 4.322 s 0.636 3.168 1.791 4.322 l 22.379 22.38 l 9.255 -9.255 l -22.38 -22.379 C 37.187 27.932 35.651 27.296 34.019 27.296 z" style="stroke: none; stroke-width: 1; stroke-dasharray: none; stroke-linecap: butt; stroke-linejoin: miter; stroke-miterlimit: 10; fill: rgb(0,35,86); fill-rule: nonzero; opacity: 1;" transform=" matrix(1 0 0 1 0 0) " stroke-linecap="round" />
	<path d="M 11.668 90 c -0.256 0 -0.512 -0.098 -0.707 -0.293 L 0.293 79.039 c -0.391 -0.391 -0.391 -1.023 0 -1.414 l 28.116 -28.116 c 0.391 -0.391 1.023 -0.391 1.414 0 l 10.668 10.668 c 0.188 0.188 0.293 0.441 0.293 0.707 s -0.105 0.52 -0.293 0.707 L 12.375 89.707 C 12.18 89.902 11.924 90 11.668 90 z M 2.414 78.332 l 9.254 9.254 L 38.37 60.884 l -9.254 -9.254 L 2.414 78.332 z" style="stroke: none; stroke-width: 1; stroke-dasharray: none; stroke-linecap: butt; stroke-linejoin: miter; stroke-miterlimit: 10; fill: rgb(0,35,86); fill-rule: nonzero; opacity: 1;" transform=" matrix(1 0 0 1 0 0) " stroke-linecap="round" />
	<path d="M 25.726 75.942 c -0.256 0 -0.512 -0.098 -0.707 -0.293 L 14.351 64.98 c -0.391 -0.391 -0.391 -1.023 0 -1.414 s 1.023 -0.391 1.414 0 l 10.668 10.669 c 0.391 0.391 0.391 1.023 0 1.414 C 26.238 75.845 25.982 75.942 25.726 75.942 z" style="stroke: none; stroke-width: 1; stroke-dasharray: none; stroke-linecap: butt; stroke-linejoin: miter; stroke-miterlimit: 10; fill: rgb(0,35,86); fill-rule: nonzero; opacity: 1;" transform=" matrix(1 0 0 1 0 0) " stroke-linecap="round" />
	<path d="M 32.95 68.718 c -0.256 0 -0.512 -0.098 -0.707 -0.293 L 21.575 57.757 c -0.391 -0.391 -0.391 -1.023 0 -1.414 s 1.023 -0.391 1.414 0 l 10.668 10.668 c 0.391 0.391 0.391 1.023 0 1.414 C 33.462 68.62 33.206 68.718 32.95 68.718 z" style="stroke: none; stroke-width: 1; stroke-dasharray: none; stroke-linecap: butt; stroke-linejoin: miter; stroke-miterlimit: 10; fill: rgb(0,35,86); fill-rule: nonzero; opacity: 1;" transform=" matrix(1 0 0 1 0 0) " stroke-linecap="round" />
	<path d="M 18.501 83.166 c -0.256 0 -0.512 -0.098 -0.707 -0.293 L 7.126 72.205 c -0.391 -0.391 -0.391 -1.023 0 -1.414 s 1.023 -0.391 1.414 0 l 10.668 10.668 c 0.391 0.391 0.391 1.023 0 1.414 C 19.013 83.068 18.757 83.166 18.501 83.166 z" style="stroke: none; stroke-width: 1; stroke-dasharray: none; stroke-linecap: butt; stroke-linejoin: miter; stroke-miterlimit: 10; fill: rgb(0,35,86); fill-rule: nonzero; opacity: 1;" transform=" matrix(1 0 0 1 0 0) " stroke-linecap="round" />
	<path d="M 60.884 40.784 c -0.266 0 -0.52 -0.105 -0.707 -0.293 L 49.509 29.823 c -0.391 -0.391 -0.391 -1.023 0 -1.414 L 77.625 0.293 c 0.391 -0.391 1.023 -0.391 1.414 0 l 10.668 10.668 c 0.391 0.391 0.391 1.023 0 1.414 L 61.591 40.491 C 61.403 40.679 61.149 40.784 60.884 40.784 z M 51.63 29.116 l 9.254 9.254 l 26.702 -26.702 l -9.254 -9.254 L 51.63 29.116 z" style="stroke: none; stroke-width: 1; stroke-dasharray: none; stroke-linecap: butt; stroke-linejoin: miter; stroke-miterlimit: 10; fill: rgb(0,35,86); fill-rule: nonzero; opacity: 1;" transform=" matrix(1 0 0 1 0 0) " stroke-linecap="round" />
	<path d="M 74.942 26.726 c -0.256 0 -0.512 -0.098 -0.707 -0.293 L 63.567 15.765 c -0.391 -0.391 -0.391 -1.023 0 -1.414 s 1.023 -0.391 1.414 0 l 10.668 10.668 c 0.391 0.391 0.391 1.023 0 1.414 C 75.454 26.628 75.198 26.726 74.942 26.726 z" style="stroke: none; stroke-width: 1; stroke-dasharray: none; stroke-linecap: butt; stroke-linejoin: miter; stroke-miterlimit: 10; fill: rgb(0,35,86); fill-rule: nonzero; opacity: 1;" transform=" matrix(1 0 0 1 0 0) " stroke-linecap="round" />
	<path d="M 82.166 19.502 c -0.256 0 -0.512 -0.098 -0.707 -0.293 L 70.791 8.541 c -0.391 -0.391 -0.391 -1.023 0 -1.414 s 1.023 -0.391 1.414 0 l 10.668 10.668 c 0.391 0.391 0.391 1.023 0 1.414 C 82.678 19.404 82.422 19.502 82.166 19.502 z" style="stroke: none; stroke-width: 1; stroke-dasharray: none; stroke-linecap: butt; stroke-linejoin: miter; stroke-miterlimit: 10; fill: rgb(0,35,86); fill-rule: nonzero; opacity: 1;" transform=" matrix(1 0 0 1 0 0) " stroke-linecap="round" />
	<path d="M 67.718 33.951 c -0.256 0 -0.512 -0.098 -0.707 -0.293 L 56.343 22.989 c -0.391 -0.391 -0.391 -1.023 0 -1.414 s 1.023 -0.391 1.414 0 l 10.668 10.668 c 0.391 0.391 0.391 1.023 0 1.414 C 68.229 33.853 67.974 33.951 67.718 33.951 z" style="stroke: none; stroke-width: 1; stroke-dasharray: none; stroke-linecap: butt; stroke-linejoin: miter; stroke-miterlimit: 10; fill: rgb(0,35,86); fill-rule: nonzero; opacity: 1;" transform=" matrix(1 0 0 1 0 0) " stroke-linecap="round" />
	<path d="M 53.254 37.746 c -0.256 0 -0.512 -0.098 -0.707 -0.293 c -0.391 -0.391 -0.391 -1.023 0 -1.414 L 82.959 5.627 c 0.391 -0.391 1.023 -0.391 1.414 0 s 0.391 1.023 0 1.414 L 53.961 37.453 C 53.766 37.648 53.51 37.746 53.254 37.746 z" style="stroke: none; stroke-width: 1; stroke-dasharray: none; stroke-linecap: butt; stroke-linejoin: miter; stroke-miterlimit: 10; fill: rgb(0,35,86); fill-rule: nonzero; opacity: 1;" transform=" matrix(1 0 0 1 0 0) " stroke-linecap="round" />
	<path d="M 6.334 84.666 c -0.256 0 -0.512 -0.098 -0.707 -0.293 c -0.391 -0.391 -0.391 -1.023 0 -1.414 l 30.314 -30.314 c 0.391 -0.391 1.023 -0.391 1.414 0 s 0.391 1.023 0 1.414 L 7.041 84.373 C 6.846 84.568 6.59 84.666 6.334 84.666 z" style="stroke: none; stroke-width: 1; stroke-dasharray: none; stroke-linecap: butt; stroke-linejoin: miter; stroke-miterlimit: 10; fill: rgb(0,35,86); fill-rule: nonzero; opacity: 1;" transform=" matrix(1 0 0 1 0 0) " stroke-linecap="round" />
	<path d="M 55.5 73.247 c -0.027 0 -0.054 -0.001 -0.081 -0.003 c -0.293 -0.024 -0.56 -0.175 -0.731 -0.413 c -3.729 -5.192 -3.152 -12.245 1.373 -16.771 c 4.524 -4.526 11.576 -5.104 16.771 -1.373 c 0.238 0.172 0.389 0.438 0.413 0.731 c 0.023 0.292 -0.082 0.581 -0.29 0.788 l -5.499 5.499 c -0.391 0.391 -1.023 0.391 -1.414 0 s -0.391 -1.023 0 -1.414 l 4.621 -4.622 c -4.264 -2.423 -9.643 -1.742 -13.188 1.805 c -3.546 3.546 -4.228 8.924 -1.805 13.188 l 4.622 -4.621 c 0.391 -0.391 1.023 -0.391 1.414 0 s 0.391 1.023 0 1.414 l -5.499 5.499 C 56.019 73.143 55.764 73.247 55.5 73.247 z" style="stroke: none; stroke-width: 1; stroke-dasharray: none; stroke-linecap: butt; stroke-linejoin: miter; stroke-miterlimit: 10; fill: rgb(0,35,86); fill-rule: nonzero; opacity: 1;" transform=" matrix(1 0 0 1 0 0) " stroke-linecap="round" />
	<path d="M 81.133 46.004 c -3.034 0 -5.502 -2.468 -5.502 -5.501 S 78.099 35 81.133 35 s 5.502 2.468 5.502 5.502 S 84.167 46.004 81.133 46.004 z M 81.133 37 c -1.931 0 -3.502 1.571 -3.502 3.502 s 1.571 3.502 3.502 3.502 s 3.502 -1.571 3.502 -3.502 S 83.063 37 81.133 37 z" style="stroke: none; stroke-width: 1; stroke-dasharray: none; stroke-linecap: butt; stroke-linejoin: miter; stroke-miterlimit: 10; fill: rgb(0,35,86); fill-rule: nonzero; opacity: 1;" transform=" matrix(1 0 0 1 0 0) " stroke-linecap="round" />
	<path d="M 11.133 38.004 c -3.034 0 -5.502 -2.468 -5.502 -5.502 S 8.1 27 11.133 27 s 5.502 2.468 5.502 5.502 S 14.167 38.004 11.133 38.004 z M 11.133 29 c -1.931 0 -3.502 1.571 -3.502 3.502 s 1.571 3.502 3.502 3.502 s 3.502 -1.571 3.502 -3.502 S 13.064 29 11.133 29 z" style="stroke: none; stroke-width: 1; stroke-dasharray: none; stroke-linecap: butt; stroke-linejoin: miter; stroke-miterlimit: 10; fill: rgb(0,35,86); fill-rule: nonzero; opacity: 1;" transform=" matrix(1 0 0 1 0 0) " stroke-linecap="round" />
	<path d="M 67.57 68.57 c -0.256 0 -0.512 -0.098 -0.707 -0.293 l -6.111 -6.111 c -0.391 -0.391 -0.391 -1.023 0 -1.414 s 1.023 -0.391 1.414 0 l 6.111 6.111 c 0.391 0.391 0.391 1.023 0 1.414 C 68.082 68.473 67.826 68.57 67.57 68.57 z" style="stroke: none; stroke-width: 1; stroke-dasharray: none; stroke-linecap: butt; stroke-linejoin: miter; stroke-miterlimit: 10; fill: rgb(248,134,15); fill-rule: nonzero; opacity: 1;" transform=" matrix(1 0 0 1 0 0) " stroke-linecap="round" />
	<path d="M 37.857 11.366 h -1.209 c -0.552 0 -1 -0.448 -1 -1 s 0.448 -1 1 -1 h 1.209 c 0.552 0 1 0.448 1 1 S 38.41 11.366 37.857 11.366 z" style="stroke: none; stroke-width: 1; stroke-dasharray: none; stroke-linecap: butt; stroke-linejoin: miter; stroke-miterlimit: 10; fill: rgb(248,134,15); fill-rule: nonzero; opacity: 1;" transform=" matrix(1 0 0 1 0 0) " stroke-linecap="round" />
	<path d="M 43.916 11.366 h -1.209 c -0.552 0 -1 -0.448 -1 -1 s 0.448 -1 1 -1 h 1.209 c 0.552 0 1 0.448 1 1 S 44.468 11.366 43.916 11.366 z" style="stroke: none; stroke-width: 1; stroke-dasharray: none; stroke-linecap: butt; stroke-linejoin: miter; stroke-miterlimit: 10; fill: rgb(248,134,15); fill-rule: nonzero; opacity: 1;" transform=" matrix(1 0 0 1 0 0) " stroke-linecap="round" />
	<path d="M 40.282 8.942 c -0.552 0 -1 -0.448 -1 -1 V 6.733 c 0 -0.552 0.448 -1 1 -1 s 1 0.448 1 1 v 1.209 C 41.282 8.494 40.834 8.942 40.282 8.942 z" style="stroke: none; stroke-width: 1; stroke-dasharray: none; stroke-linecap: butt; stroke-linejoin: miter; stroke-miterlimit: 10; fill: rgb(248,134,15); fill-rule: nonzero; opacity: 1;" transform=" matrix(1 0 0 1 0 0) " stroke-linecap="round" />
	<path d="M 40.282 15 c -0.552 0 -1 -0.448 -1 -1 v -1.209 c 0 -0.552 0.448 -1 1 -1 s 1 0.448 1 1 V 14 C 41.282 14.552 40.834 15 40.282 15 z" style="stroke: none; stroke-width: 1; stroke-dasharray: none; stroke-linecap: butt; stroke-linejoin: miter; stroke-miterlimit: 10; fill: rgb(248,134,15); fill-rule: nonzero; opacity: 1;" transform=" matrix(1 0 0 1 0 0) " stroke-linecap="round" />
	<path d="M 20.19 12.97 c -0.13 0 -0.26 -0.03 -0.38 -0.08 c -0.12 -0.05 -0.23 -0.12 -0.32 -0.21 c -0.1 -0.1 -0.17 -0.21 -0.22 -0.33 c -0.05 -0.12 -0.08 -0.25 -0.08 -0.38 c 0 -0.26 0.11 -0.52 0.3 -0.71 c 0.09 -0.09 0.2 -0.16 0.32 -0.21 c 0.37 -0.16 0.81 -0.07 1.09 0.21 c 0.05 0.05 0.09 0.1 0.13 0.15 c 0.03 0.06 0.06 0.12 0.09 0.18 c 0.02 0.06 0.04 0.12 0.05 0.18 c 0.02 0.07 0.02 0.13 0.02 0.2 c 0 0.26 -0.1 0.52 -0.29 0.71 C 20.72 12.86 20.46 12.97 20.19 12.97 z" style="stroke: none; stroke-width: 1; stroke-dasharray: none; stroke-linecap: butt; stroke-linejoin: miter; stroke-miterlimit: 10; fill: rgb(248,134,15); fill-rule: nonzero; opacity: 1;" transform=" matrix(1 0 0 1 0 0) " stroke-linecap="round" />
	<path d="M 39.857 81.366 h -1.209 c -0.552 0 -1 -0.447 -1 -1 s 0.448 -1 1 -1 h 1.209 c 0.552 0 1 0.447 1 1 S 40.41 81.366 39.857 81.366 z" style="stroke: none; stroke-width: 1; stroke-dasharray: none; stroke-linecap: butt; stroke-linejoin: miter; stroke-miterlimit: 10; fill: rgb(248,134,15); fill-rule: nonzero; opacity: 1;" transform=" matrix(1 0 0 1 0 0) " stroke-linecap="round" />
	<path d="M 45.916 81.366 h -1.209 c -0.552 0 -1 -0.447 -1 -1 s 0.448 -1 1 -1 h 1.209 c 0.553 0 1 0.447 1 1 S 46.469 81.366 45.916 81.366 z" style="stroke: none; stroke-width: 1; stroke-dasharray: none; stroke-linecap: butt; stroke-linejoin: miter; stroke-miterlimit: 10; fill: rgb(248,134,15); fill-rule: nonzero; opacity: 1;" transform=" matrix(1 0 0 1 0 0) " stroke-linecap="round" />
	<path d="M 42.282 78.941 c -0.552 0 -1 -0.447 -1 -1 v -1.209 c 0 -0.553 0.448 -1 1 -1 s 1 0.447 1 1 v 1.209 C 43.282 78.494 42.834 78.941 42.282 78.941 z" style="stroke: none; stroke-width: 1; stroke-dasharray: none; stroke-linecap: butt; stroke-linejoin: miter; stroke-miterlimit: 10; fill: rgb(248,134,15); fill-rule: nonzero; opacity: 1;" transform=" matrix(1 0 0 1 0 0) " stroke-linecap="round" />
	<path d="M 42.282 85 c -0.552 0 -1 -0.447 -1 -1 v -1.209 c 0 -0.553 0.448 -1 1 -1 s 1 0.447 1 1 V 84 C 43.282 84.553 42.834 85 42.282 85 z" style="stroke: none; stroke-width: 1; stroke-dasharray: none; stroke-linecap: butt; stroke-linejoin: miter; stroke-miterlimit: 10; fill: rgb(248,134,15); fill-rule: nonzero; opacity: 1;" transform=" matrix(1 0 0 1 0 0) " stroke-linecap="round" />
	<path d="M 77.189 82.149 c -0.13 0 -0.26 -0.02 -0.38 -0.069 s -0.229 -0.13 -0.319 -0.221 c -0.101 -0.09 -0.171 -0.199 -0.221 -0.329 c -0.05 -0.12 -0.08 -0.24 -0.08 -0.381 c 0 -0.13 0.03 -0.26 0.08 -0.38 s 0.12 -0.229 0.221 -0.319 c 0.359 -0.381 1.04 -0.381 1.409 0 c 0.091 0.09 0.17 0.199 0.221 0.319 c 0.05 0.12 0.069 0.25 0.069 0.38 c 0 0.131 -0.02 0.261 -0.069 0.381 c -0.051 0.13 -0.13 0.239 -0.221 0.329 C 77.81 81.95 77.7 82.03 77.58 82.08 S 77.33 82.149 77.189 82.149 z" style="stroke: none; stroke-width: 1; stroke-dasharray: none; stroke-linecap: butt; stroke-linejoin: miter; stroke-miterlimit: 10; fill: rgb(248,134,15); fill-rule: nonzero; opacity: 1;" transform=" matrix(1 0 0 1 0 0) " stroke-linecap="round" />
	<path d="M 4.19 57.97 c -0.13 0 -0.26 -0.03 -0.38 -0.08 c -0.12 -0.05 -0.23 -0.12 -0.32 -0.22 c -0.19 -0.18 -0.3 -0.43 -0.3 -0.7 c 0 -0.13 0.03 -0.26 0.08 -0.38 c 0.05 -0.13 0.12 -0.24 0.22 -0.33 c 0.37 -0.37 1.04 -0.37 1.41 0 c 0.09 0.09 0.17 0.2 0.22 0.33 c 0.05 0.12 0.07 0.25 0.07 0.38 c 0 0.271 -0.1 0.521 -0.29 0.7 C 4.71 57.859 4.46 57.97 4.19 57.97 z" style="stroke: none; stroke-width: 1; stroke-dasharray: none; stroke-linecap: butt; stroke-linejoin: miter; stroke-miterlimit: 10; fill: rgb(248,134,15); fill-rule: nonzero; opacity: 1;" transform=" matrix(1 0 0 1 0 0) " stroke-linecap="round" />
	<path d="M 85.189 63.97 c -0.13 0 -0.26 -0.03 -0.38 -0.08 s -0.229 -0.12 -0.319 -0.21 c -0.19 -0.2 -0.301 -0.45 -0.301 -0.71 c 0 -0.13 0.03 -0.26 0.08 -0.38 c 0.05 -0.13 0.12 -0.24 0.221 -0.33 c 0.09 -0.09 0.199 -0.16 0.319 -0.21 c 0.37 -0.16 0.811 -0.07 1.09 0.21 c 0.091 0.09 0.17 0.2 0.221 0.33 c 0.05 0.12 0.069 0.25 0.069 0.38 c 0 0.26 -0.1 0.51 -0.29 0.71 C 85.71 63.859 85.46 63.97 85.189 63.97 z" style="stroke: none; stroke-width: 1; stroke-dasharray: none; stroke-linecap: butt; stroke-linejoin: miter; stroke-miterlimit: 10; fill: rgb(248,134,15); fill-rule: nonzero; opacity: 1;" transform=" matrix(1 0 0 1 0 0) " stroke-linecap="round" />
</g>
</svg>